<svg id="visual" viewBox="0 0 900 600" width="900" height="600" xmlns="http://www.w3.org/2000/svg" xmlns:xlink="http://www.w3.org/1999/xlink" version="1.1"><path d="M700 600L720.7 590C741.3 580 782.7 560 798.5 540C814.3 520 804.7 500 787.8 480C771 460 747 440 736.3 420C725.7 400 728.3 380 727.5 360C726.7 340 722.3 320 729.2 300C736 280 754 260 769.2 240C784.3 220 796.7 200 793 180C789.3 160 769.7 140 773.2 120C776.7 100 803.3 80 814.5 60C825.7 40 821.3 20 819.2 10L817 0L900 0L900 10C900 20 900 40 900 60C900 80 900 100 900 120C900 140 900 160 900 180C900 200 900 220 900 240C900 260 900 280 900 300C900 320 900 340 900 360C900 380 900 400 900 420C900 440 900 460 900 480C900 500 900 520 900 540C900 560 900 580 900 590L900 600Z" fill="#BE3144" stroke-linecap="round" stroke-linejoin="miter"></path></svg>