<svg xmlns="http://www.w3.org/2000/svg" version="1.1" xmlns:xlink="http://www.w3.org/1999/xlink" xmlns:svgjs="http://svgjs.dev/svgjs" viewBox="0 0 1422 800"><circle r="10" cx="388" cy="486" stroke-width="2" stroke="hsl(343, 50%, 50%)" fill="none" opacity="0.24"></circle><circle r="12.5" cx="82" cy="511" fill="hsl(342, 50%, 50%)" opacity="0.78"></circle><circle r="5.5" cx="223" cy="544" fill="hsl(338, 50%, 50%)" opacity="0.87"></circle><circle r="7.5" cx="1258" cy="675" fill="hsl(332, 50%, 50%)" opacity="0.38"></circle><circle r="5" cx="1044" cy="149" fill="hsl(331, 50%, 50%)" opacity="0.19"></circle><circle r="9" cx="258" cy="391" stroke-width="2" stroke="hsl(338, 50%, 50%)" fill="none" opacity="0.98"></circle><circle r="7" cx="919" cy="536" stroke-width="2" stroke="hsl(337, 50%, 50%)" fill="none" opacity="0.12"></circle><circle r="7.5" cx="1172" cy="675" fill="hsl(330, 50%, 50%)" opacity="0.28"></circle><circle r="10" cx="375" cy="530" fill="hsl(342, 50%, 50%)" opacity="0.39"></circle><circle r="12.5" cx="537" cy="215" stroke-width="2" stroke="hsl(349, 50%, 50%)" fill="none" opacity="0.89"></circle><circle r="8.5" cx="214" cy="320" stroke-width="2" stroke="hsl(338, 50%, 50%)" fill="none" opacity="0.63"></circle><circle r="13" cx="542" cy="500" stroke-width="2" stroke="hsl(349, 50%, 50%)" fill="none" opacity="0.26"></circle><circle r="7" cx="1261" cy="387" fill="hsl(332, 50%, 50%)" opacity="0.35"></circle><circle r="9.5" cx="139" cy="188" fill="hsl(339, 50%, 50%)" opacity="0.15"></circle><circle r="15" cx="600" cy="41" fill="hsl(344, 50%, 50%)" opacity="0.60"></circle><circle r="10.5" cx="669" cy="669" fill="hsl(348, 50%, 50%)" opacity="0.45"></circle><circle r="6.5" cx="1118" cy="293" stroke-width="2" stroke="hsl(330, 50%, 50%)" fill="none" opacity="0.45"></circle><circle r="9" cx="1053" cy="767" fill="hsl(331, 50%, 50%)" opacity="0.34"></circle><circle r="10.5" cx="948" cy="116" stroke-width="2" stroke="hsl(333, 50%, 50%)" fill="none" opacity="0.27"></circle><circle r="9" cx="678" cy="510" fill="hsl(348, 50%, 50%)" opacity="0.88"></circle><circle r="8.5" cx="402" cy="291" fill="hsl(344, 50%, 50%)" opacity="0.14"></circle><circle r="13" cx="571" cy="441" fill="hsl(349, 50%, 50%)" opacity="0.79"></circle><circle r="6.5" cx="1255" cy="217" fill="hsl(332, 50%, 50%)" opacity="0.51"></circle><circle r="11.5" cx="834" cy="46" stroke-width="2" stroke="hsl(334, 50%, 50%)" fill="none" opacity="0.76"></circle><circle r="24" cx="521" cy="745" fill="hsl(348, 50%, 50%)" opacity="0.54"></circle><circle r="10" cx="1362" cy="140" stroke-width="2" stroke="hsl(335, 50%, 50%)" fill="none" opacity="0.93"></circle><circle r="7" cx="1101" cy="38" fill="hsl(331, 50%, 50%)" opacity="0.48"></circle><circle r="12.5" cx="1279" cy="757" fill="hsl(332, 50%, 50%)" opacity="0.18"></circle><circle r="8" cx="774" cy="353" stroke-width="2" stroke="hsl(345, 50%, 50%)" fill="none" opacity="0.97"></circle><circle r="6" cx="1059" cy="396" stroke-width="2" stroke="hsl(331, 50%, 50%)" fill="none" opacity="0.30"></circle><circle r="8.5" cx="1203" cy="343" stroke-width="2" stroke="hsl(331, 50%, 50%)" fill="none" opacity="0.44"></circle><circle r="10" cx="631" cy="395" stroke-width="2" stroke="hsl(349, 50%, 50%)" fill="none" opacity="0.82"></circle><circle r="9" cx="1357" cy="201" fill="hsl(336, 50%, 50%)" opacity="0.80"></circle><circle r="9" cx="249" cy="121" stroke-width="2" stroke="hsl(337, 50%, 50%)" fill="none" opacity="0.13"></circle><circle r="9.5" cx="249" cy="641" fill="hsl(338, 50%, 50%)" opacity="0.98"></circle><circle r="14.5" cx="406" cy="161" fill="hsl(343, 50%, 50%)" opacity="0.75"></circle><circle r="10" cx="697" cy="344" stroke-width="2" stroke="hsl(347, 50%, 50%)" fill="none" opacity="0.63"></circle><circle r="10" cx="1236" cy="33" stroke-width="2" stroke="hsl(333, 50%, 50%)" fill="none" opacity="0.72"></circle><circle r="4.5" cx="1108" cy="249" stroke-width="2" stroke="hsl(331, 50%, 50%)" fill="none" opacity="0.14"></circle><circle r="19.5" cx="475" cy="143" stroke-width="2" stroke="hsl(345, 50%, 50%)" fill="none" opacity="0.12"></circle><circle r="8.5" cx="1323" cy="542" fill="hsl(334, 50%, 50%)" opacity="0.51"></circle><circle r="7.5" cx="675" cy="128" stroke-width="2" stroke="hsl(344, 50%, 50%)" fill="none" opacity="0.35"></circle><circle r="16.5" cx="689" cy="568" stroke-width="2" stroke="hsl(348, 50%, 50%)" fill="none" opacity="0.17"></circle><circle r="10" cx="687" cy="782" fill="hsl(348, 50%, 50%)" opacity="0.47"></circle><circle r="11" cx="708" cy="277" fill="hsl(347, 50%, 50%)" opacity="0.13"></circle><circle r="11" cx="322" cy="640" stroke-width="2" stroke="hsl(340, 50%, 50%)" fill="none" opacity="0.81"></circle><circle r="8" cx="11" cy="221" fill="hsl(345, 50%, 50%)" opacity="0.55"></circle><circle r="7.5" cx="1177" cy="108" stroke-width="2" stroke="hsl(331, 50%, 50%)" fill="none" opacity="0.11"></circle><circle r="12.5" cx="626" cy="298" stroke-width="2" stroke="hsl(349, 50%, 50%)" fill="none" opacity="0.86"></circle><circle r="9.5" cx="206" cy="595" stroke-width="2" stroke="hsl(338, 50%, 50%)" fill="none" opacity="0.41"></circle><circle r="7" cx="1324" cy="246" fill="hsl(334, 50%, 50%)" opacity="0.62"></circle><circle r="5.5" cx="1133" cy="582" stroke-width="2" stroke="hsl(330, 50%, 50%)" fill="none" opacity="0.69"></circle><circle r="7.5" cx="1284" cy="341" fill="hsl(332, 50%, 50%)" opacity="0.44"></circle><circle r="8" cx="1177" cy="224" stroke-width="2" stroke="hsl(330, 50%, 50%)" fill="none" opacity="0.27"></circle><circle r="5.5" cx="1230" cy="254" fill="hsl(331, 50%, 50%)" opacity="0.85"></circle><circle r="7.5" cx="1360" cy="321" fill="hsl(336, 50%, 50%)" opacity="0.39"></circle><circle r="8" cx="1401" cy="237" stroke-width="2" stroke="hsl(338, 50%, 50%)" fill="none" opacity="0.90"></circle><circle r="4.5" cx="1393" cy="581" stroke-width="2" stroke="hsl(337, 50%, 50%)" fill="none" opacity="0.91"></circle><circle r="8" cx="1183" cy="470" fill="hsl(330, 50%, 50%)" opacity="0.54"></circle><circle r="7.5" cx="200" cy="474" fill="hsl(338, 50%, 50%)" opacity="0.52"></circle><circle r="7" cx="363" cy="88" fill="hsl(339, 50%, 50%)" opacity="0.40"></circle><circle r="12" cx="87" cy="189" stroke-width="2" stroke="hsl(342, 50%, 50%)" fill="none" opacity="0.26"></circle><circle r="16" cx="406" cy="238" fill="hsl(344, 50%, 50%)" opacity="0.92"></circle><circle r="7" cx="295" cy="677" stroke-width="2" stroke="hsl(339, 50%, 50%)" fill="none" opacity="0.64"></circle><circle r="11" cx="951" cy="360" fill="hsl(336, 50%, 50%)" opacity="0.86"></circle><circle r="10" cx="875" cy="527" fill="hsl(339, 50%, 50%)" opacity="0.36"></circle><circle r="9" cx="137" cy="535" fill="hsl(339, 50%, 50%)" opacity="0.11"></circle><circle r="11" cx="277" cy="450" fill="hsl(338, 50%, 50%)" opacity="0.88"></circle><circle r="7" cx="1080" cy="612" fill="hsl(331, 50%, 50%)" opacity="0.99"></circle><circle r="10" cx="184" cy="550" fill="hsl(338, 50%, 50%)" opacity="0.72"></circle><circle r="12.5" cx="639" cy="527" stroke-width="2" stroke="hsl(349, 50%, 50%)" fill="none" opacity="0.34"></circle><circle r="9.5" cx="40" cy="170" stroke-width="2" stroke="hsl(344, 50%, 50%)" fill="none" opacity="0.43"></circle><circle r="11" cx="1345" cy="643" stroke-width="2" stroke="hsl(335, 50%, 50%)" fill="none" opacity="0.78"></circle><circle r="13" cx="669" cy="305" fill="hsl(348, 50%, 50%)" opacity="0.38"></circle><circle r="5.5" cx="1074" cy="348" fill="hsl(331, 50%, 50%)" opacity="0.86"></circle><circle r="4.5" cx="1022" cy="64" stroke-width="2" stroke="hsl(330, 50%, 50%)" fill="none" opacity="0.26"></circle><circle r="18" cx="561" cy="99" stroke-width="2" stroke="hsl(345, 50%, 50%)" fill="none" opacity="0.60"></circle><circle r="9" cx="392" cy="617" stroke-width="2" stroke="hsl(343, 50%, 50%)" fill="none" opacity="0.85"></circle><circle r="5.5" cx="864" cy="564" fill="hsl(341, 50%, 50%)" opacity="0.22"></circle><circle r="6.5" cx="1406" cy="297" fill="hsl(338, 50%, 50%)" opacity="0.22"></circle><circle r="11.5" cx="182" cy="381" stroke-width="2" stroke="hsl(338, 50%, 50%)" fill="none" opacity="0.21"></circle><circle r="11" cx="100" cy="716" stroke-width="2" stroke="hsl(341, 50%, 50%)" fill="none" opacity="0.35"></circle><circle r="7" cx="211" cy="139" stroke-width="2" stroke="hsl(337, 50%, 50%)" fill="none" opacity="0.15"></circle><circle r="16.5" cx="38" cy="357" stroke-width="2" stroke="hsl(344, 50%, 50%)" fill="none" opacity="0.11"></circle><circle r="11.5" cx="137" cy="347" fill="hsl(339, 50%, 50%)" opacity="0.97"></circle><circle r="6" cx="899" cy="594" fill="hsl(338, 50%, 50%)" opacity="0.15"></circle><circle r="9.5" cx="755" cy="25" fill="hsl(338, 50%, 50%)" opacity="0.85"></circle><circle r="7" cx="881" cy="782" fill="hsl(339, 50%, 50%)" opacity="0.56"></circle><circle r="11.5" cx="803" cy="742" fill="hsl(343, 50%, 50%)" opacity="0.27"></circle><circle r="13" cx="1333" cy="37" fill="hsl(336, 50%, 50%)" opacity="0.81"></circle><circle r="5.5" cx="1408" cy="612" stroke-width="2" stroke="hsl(338, 50%, 50%)" fill="none" opacity="0.75"></circle><circle r="6.5" cx="120" cy="414" stroke-width="2" stroke="hsl(340, 50%, 50%)" fill="none" opacity="0.53"></circle><circle r="10" cx="1164" cy="42" fill="hsl(332, 50%, 50%)" opacity="0.95"></circle><circle r="12" cx="797" cy="688" stroke-width="2" stroke="hsl(344, 50%, 50%)" fill="none" opacity="1.00"></circle><circle r="13" cx="587" cy="538" stroke-width="2" stroke="hsl(349, 50%, 50%)" fill="none" opacity="0.31"></circle><circle r="13.5" cx="215" cy="761" stroke-width="2" stroke="hsl(338, 50%, 50%)" fill="none" opacity="0.83"></circle><circle r="5.5" cx="1300" cy="166" fill="hsl(333, 50%, 50%)" opacity="0.97"></circle><circle r="8.5" cx="1267" cy="84" fill="hsl(333, 50%, 50%)" opacity="0.84"></circle><circle r="14.5" cx="336" cy="218" fill="hsl(341, 50%, 50%)" opacity="0.36"></circle><circle r="15.5" cx="695" cy="422" fill="hsl(347, 50%, 50%)" opacity="0.47"></circle><circle r="21" cx="45" cy="50" fill="hsl(342, 50%, 50%)" opacity="0.19"></circle><circle r="6.5" cx="1302" cy="204" stroke-width="2" stroke="hsl(333, 50%, 50%)" fill="none" opacity="0.71"></circle><circle r="9.5" cx="308" cy="548" fill="hsl(339, 50%, 50%)" opacity="0.39"></circle><circle r="14.5" cx="595" cy="487" stroke-width="2" stroke="hsl(349, 50%, 50%)" fill="none" opacity="0.98"></circle><circle r="6.5" cx="1040" cy="446" fill="hsl(332, 50%, 50%)" opacity="0.73"></circle><circle r="12" cx="102" cy="301" fill="hsl(341, 50%, 50%)" opacity="0.50"></circle><circle r="6.5" cx="926" cy="663" fill="hsl(337, 50%, 50%)" opacity="0.72"></circle><circle r="13" cx="699" cy="700" fill="hsl(347, 50%, 50%)" opacity="0.50"></circle><circle r="17" cx="34" cy="618" fill="hsl(344, 50%, 50%)" opacity="0.74"></circle><circle r="9.5" cx="811" cy="387" fill="hsl(343, 50%, 50%)" opacity="0.73"></circle><circle r="9.5" cx="916" cy="479" stroke-width="2" stroke="hsl(337, 50%, 50%)" fill="none" opacity="0.54"></circle><circle r="5.5" cx="296" cy="49" stroke-width="2" stroke="hsl(337, 50%, 50%)" fill="none" opacity="0.22"></circle><circle r="4.5" cx="1090" cy="138" stroke-width="2" stroke="hsl(330, 50%, 50%)" fill="none" opacity="0.30"></circle><circle r="9.5" cx="398" cy="333" stroke-width="2" stroke="hsl(343, 50%, 50%)" fill="none" opacity="0.34"></circle><circle r="11" cx="133" cy="239" stroke-width="2" stroke="hsl(339, 50%, 50%)" fill="none" opacity="0.50"></circle><circle r="10.5" cx="971" cy="490" fill="hsl(335, 50%, 50%)" opacity="0.72"></circle><circle r="12.5" cx="782" cy="138" fill="hsl(340, 50%, 50%)" opacity="0.54"></circle><circle r="13" cx="33" cy="483" stroke-width="2" stroke="hsl(344, 50%, 50%)" fill="none" opacity="0.28"></circle><circle r="4" cx="1056" cy="56" stroke-width="2" stroke="hsl(330, 50%, 50%)" fill="none" opacity="0.18"></circle><circle r="15.5" cx="489" cy="237" stroke-width="2" stroke="hsl(347, 50%, 50%)" fill="none" opacity="0.62"></circle><circle r="15" cx="28" cy="292" stroke-width="2" stroke="hsl(344, 50%, 50%)" fill="none" opacity="0.30"></circle><circle r="6" cx="1365" cy="250" fill="hsl(336, 50%, 50%)" opacity="0.37"></circle><circle r="10.5" cx="347" cy="592" stroke-width="2" stroke="hsl(341, 50%, 50%)" fill="none" opacity="0.87"></circle><circle r="8" cx="294" cy="145" fill="hsl(338, 50%, 50%)" opacity="0.15"></circle><circle r="14" cx="750" cy="590" fill="hsl(346, 50%, 50%)" opacity="0.28"></circle><circle r="15.5" cx="720" cy="220" stroke-width="2" stroke="hsl(346, 50%, 50%)" fill="none" opacity="0.84"></circle><circle r="8.5" cx="1247" cy="516" fill="hsl(332, 50%, 50%)" opacity="0.51"></circle><circle r="9" cx="60" cy="426" fill="hsl(343, 50%, 50%)" opacity="0.58"></circle><circle r="10.5" cx="810" cy="613" stroke-width="2" stroke="hsl(343, 50%, 50%)" fill="none" opacity="0.80"></circle><circle r="9" cx="468" cy="20" fill="hsl(344, 50%, 50%)" opacity="0.83"></circle><circle r="16" cx="440" cy="382" stroke-width="2" stroke="hsl(345, 50%, 50%)" fill="none" opacity="0.33"></circle><circle r="12" cx="772" cy="638" fill="hsl(345, 50%, 50%)" opacity="0.47"></circle><circle r="7" cx="270" cy="76" fill="hsl(336, 50%, 50%)" opacity="0.14"></circle><circle r="6" cx="1028" cy="110" stroke-width="2" stroke="hsl(330, 50%, 50%)" fill="none" opacity="0.70"></circle><circle r="7" cx="1231" cy="628" fill="hsl(331, 50%, 50%)" opacity="0.84"></circle><circle r="4.5" cx="964" cy="577" stroke-width="2" stroke="hsl(335, 50%, 50%)" fill="none" opacity="0.46"></circle><circle r="7" cx="1154" cy="165" fill="hsl(330, 50%, 50%)" opacity="0.63"></circle><circle r="11.5" cx="513" cy="288" fill="hsl(348, 50%, 50%)" opacity="0.39"></circle><circle r="6.5" cx="1072" cy="556" fill="hsl(331, 50%, 50%)" opacity="0.55"></circle><circle r="6.5" cx="1182" cy="747" stroke-width="2" stroke="hsl(330, 50%, 50%)" fill="none" opacity="0.21"></circle><circle r="10.5" cx="849" cy="748" stroke-width="2" stroke="hsl(341, 50%, 50%)" fill="none" opacity="0.74"></circle><circle r="9" cx="511" cy="331" fill="hsl(348, 50%, 50%)" opacity="0.29"></circle><circle r="13" cx="656" cy="248" fill="hsl(348, 50%, 50%)" opacity="0.32"></circle><circle r="5.5" cx="1020" cy="282" fill="hsl(333, 50%, 50%)" opacity="0.77"></circle><circle r="5.5" cx="1071" cy="181" stroke-width="2" stroke="hsl(331, 50%, 50%)" fill="none" opacity="0.57"></circle><circle r="4" cx="249" cy="535" stroke-width="2" stroke="hsl(338, 50%, 50%)" fill="none" opacity="0.72"></circle><circle r="12.5" cx="631" cy="110" stroke-width="2" stroke="hsl(344, 50%, 50%)" fill="none" opacity="0.81"></circle><circle r="13" cx="1387" cy="493" stroke-width="2" stroke="hsl(337, 50%, 50%)" fill="none" opacity="0.56"></circle><circle r="14" cx="369" cy="756" fill="hsl(342, 50%, 50%)" opacity="0.47"></circle><circle r="11" cx="236" cy="251" stroke-width="2" stroke="hsl(338, 50%, 50%)" fill="none" opacity="0.22"></circle><circle r="7.5" cx="1302" cy="490" stroke-width="2" stroke="hsl(333, 50%, 50%)" fill="none" opacity="0.53"></circle><circle r="11" cx="356" cy="349" fill="hsl(342, 50%, 50%)" opacity="0.54"></circle><circle r="8" cx="40" cy="240" fill="hsl(344, 50%, 50%)" opacity="0.62"></circle><circle r="16.5" cx="29" cy="700" fill="hsl(344, 50%, 50%)" opacity="0.39"></circle><circle r="11" cx="1365" cy="428" fill="hsl(336, 50%, 50%)" opacity="0.82"></circle><circle r="8.5" cx="311" cy="92" fill="hsl(338, 50%, 50%)" opacity="0.30"></circle><circle r="10.5" cx="429" cy="583" stroke-width="2" stroke="hsl(345, 50%, 50%)" fill="none" opacity="0.22"></circle><circle r="12.5" cx="902" cy="309" fill="hsl(338, 50%, 50%)" opacity="0.65"></circle><circle r="16" cx="581" cy="647" stroke-width="2" stroke="hsl(349, 50%, 50%)" fill="none" opacity="0.22"></circle><circle r="11" cx="389" cy="409" fill="hsl(343, 50%, 50%)" opacity="0.94"></circle><circle r="8" cx="1292" cy="439" fill="hsl(333, 50%, 50%)" opacity="0.76"></circle><circle r="10.5" cx="726" cy="133" stroke-width="2" stroke="hsl(342, 50%, 50%)" fill="none" opacity="0.47"></circle><circle r="10.5" cx="978" cy="182" fill="hsl(334, 50%, 50%)" opacity="0.74"></circle><circle r="6.5" cx="851" cy="613" fill="hsl(341, 50%, 50%)" opacity="0.43"></circle><circle r="9" cx="439" cy="67" stroke-width="2" stroke="hsl(342, 50%, 50%)" fill="none" opacity="0.66"></circle><circle r="11" cx="277" cy="190" fill="hsl(338, 50%, 50%)" opacity="0.73"></circle><circle r="9" cx="1102" cy="674" stroke-width="2" stroke="hsl(331, 50%, 50%)" fill="none" opacity="0.92"></circle><circle r="10.5" cx="78" cy="253" stroke-width="2" stroke="hsl(342, 50%, 50%)" fill="none" opacity="0.41"></circle><circle r="10.5" cx="1291" cy="602" fill="hsl(333, 50%, 50%)" opacity="0.95"></circle><circle r="6" cx="1406" cy="771" stroke-width="2" stroke="hsl(338, 50%, 50%)" fill="none" opacity="0.54"></circle><circle r="10" cx="905" cy="42" stroke-width="2" stroke="hsl(332, 50%, 50%)" fill="none" opacity="0.44"></circle><circle r="8.5" cx="156" cy="495" stroke-width="2" stroke="hsl(339, 50%, 50%)" fill="none" opacity="0.56"></circle><circle r="6" cx="308" cy="17" fill="hsl(337, 50%, 50%)" opacity="0.31"></circle><circle r="14.5" cx="527" cy="557" fill="hsl(348, 50%, 50%)" opacity="0.11"></circle><circle r="19" cx="440" cy="754" stroke-width="2" stroke="hsl(345, 50%, 50%)" fill="none" opacity="0.17"></circle><circle r="12.5" cx="632" cy="657" fill="hsl(349, 50%, 50%)" opacity="0.57"></circle><circle r="7.5" cx="1226" cy="429" stroke-width="2" stroke="hsl(331, 50%, 50%)" fill="none" opacity="0.96"></circle><circle r="14" cx="446" cy="660" fill="hsl(346, 50%, 50%)" opacity="0.42"></circle><circle r="7.5" cx="1013" cy="390" stroke-width="2" stroke="hsl(333, 50%, 50%)" fill="none" opacity="1.00"></circle><circle r="11.5" cx="475" cy="615" stroke-width="2" stroke="hsl(347, 50%, 50%)" fill="none" opacity="0.42"></circle><circle r="11.5" cx="522" cy="604" fill="hsl(348, 50%, 50%)" opacity="0.89"></circle><circle r="6.5" cx="1035" cy="646" stroke-width="2" stroke="hsl(332, 50%, 50%)" fill="none" opacity="0.57"></circle><circle r="7" cx="1179" cy="288" stroke-width="2" stroke="hsl(330, 50%, 50%)" fill="none" opacity="0.93"></circle><circle r="21.5" cx="601" cy="745" fill="hsl(349, 50%, 50%)" opacity="0.96"></circle><circle r="15" cx="604" cy="165" stroke-width="2" stroke="hsl(348, 50%, 50%)" fill="none" opacity="0.23"></circle><circle r="9.5" cx="754" cy="75" stroke-width="2" stroke="hsl(339, 50%, 50%)" fill="none" opacity="0.37"></circle><circle r="6" cx="1029" cy="600" stroke-width="2" stroke="hsl(332, 50%, 50%)" fill="none" opacity="0.32"></circle><circle r="7" cx="388" cy="53" fill="hsl(340, 50%, 50%)" opacity="0.57"></circle><circle r="7.5" cx="43" cy="760" stroke-width="2" stroke="hsl(344, 50%, 50%)" fill="none" opacity="0.85"></circle><circle r="7" cx="970" cy="58" fill="hsl(331, 50%, 50%)" opacity="0.60"></circle><circle r="10" cx="77" cy="772" fill="hsl(342, 50%, 50%)" opacity="0.42"></circle><circle r="12.5" cx="641" cy="204" stroke-width="2" stroke="hsl(349, 50%, 50%)" fill="none" opacity="0.98"></circle><circle r="12" cx="965" cy="764" fill="hsl(335, 50%, 50%)" opacity="0.84"></circle><circle r="10" cx="687" cy="86" stroke-width="2" stroke="hsl(342, 50%, 50%)" fill="none" opacity="0.23"></circle><circle r="6" cx="1331" cy="294" fill="hsl(334, 50%, 50%)" opacity="0.47"></circle><circle r="11" cx="868" cy="459" fill="hsl(339, 50%, 50%)" opacity="0.66"></circle><circle r="13" cx="867" cy="125" fill="hsl(335, 50%, 50%)" opacity="0.73"></circle><circle r="14.5" cx="667" cy="33" stroke-width="2" stroke="hsl(341, 50%, 50%)" fill="none" opacity="0.78"></circle><circle r="10" cx="1394" cy="70" fill="hsl(336, 50%, 50%)" opacity="0.32"></circle><circle r="8.5" cx="116" cy="474" stroke-width="2" stroke="hsl(340, 50%, 50%)" fill="none" opacity="0.71"></circle><circle r="6.5" cx="264" cy="692" fill="hsl(338, 50%, 50%)" opacity="0.59"></circle><circle r="9.5" cx="804" cy="288" fill="hsl(343, 50%, 50%)" opacity="0.33"></circle><circle r="14.5" cx="299" cy="289" stroke-width="2" stroke="hsl(339, 50%, 50%)" fill="none" opacity="0.74"></circle><circle r="10.5" cx="819" cy="545" fill="hsl(343, 50%, 50%)" opacity="0.31"></circle><circle r="11.5" cx="759" cy="538" stroke-width="2" stroke="hsl(345, 50%, 50%)" fill="none" opacity="0.19"></circle><circle r="10.5" cx="885" cy="637" fill="hsl(339, 50%, 50%)" opacity="0.10"></circle><circle r="14.5" cx="500" cy="393" fill="hsl(347, 50%, 50%)" opacity="0.13"></circle><circle r="10.5" cx="93" cy="380" stroke-width="2" stroke="hsl(341, 50%, 50%)" fill="none" opacity="0.69"></circle><circle r="8" cx="966" cy="645" stroke-width="2" stroke="hsl(335, 50%, 50%)" fill="none" opacity="0.69"></circle><circle r="13.5" cx="755" cy="413" fill="hsl(346, 50%, 50%)" opacity="0.43"></circle><circle r="9" cx="1363" cy="768" fill="hsl(336, 50%, 50%)" opacity="0.74"></circle><circle r="11" cx="761" cy="463" stroke-width="2" stroke="hsl(345, 50%, 50%)" fill="none" opacity="0.50"></circle><circle r="9.5" cx="677" cy="371" stroke-width="2" stroke="hsl(348, 50%, 50%)" fill="none" opacity="0.22"></circle><circle r="12" cx="26" cy="130" fill="hsl(344, 50%, 50%)" opacity="0.23"></circle><circle r="7.5" cx="1020" cy="337" fill="hsl(333, 50%, 50%)" opacity="0.96"></circle><circle r="7" cx="1285" cy="285" fill="hsl(332, 50%, 50%)" opacity="0.74"></circle><circle r="10" cx="1396" cy="367" fill="hsl(337, 50%, 50%)" opacity="0.60"></circle><circle r="8.5" cx="355" cy="34" fill="hsl(338, 50%, 50%)" opacity="0.88"></circle><circle r="10" cx="1025" cy="702" stroke-width="2" stroke="hsl(332, 50%, 50%)" fill="none" opacity="0.66"></circle><circle r="8.5" cx="1107" cy="422" stroke-width="2" stroke="hsl(331, 50%, 50%)" fill="none" opacity="0.23"></circle><circle r="7" cx="944" cy="702" fill="hsl(336, 50%, 50%)" opacity="0.73"></circle><circle r="6" cx="928" cy="587" fill="hsl(337, 50%, 50%)" opacity="0.28"></circle><circle r="7.5" cx="1166" cy="617" stroke-width="2" stroke="hsl(330, 50%, 50%)" fill="none" opacity="0.95"></circle><circle r="15" cx="603" cy="587" fill="hsl(349, 50%, 50%)" opacity="0.48"></circle><circle r="9.5" cx="899" cy="726" fill="hsl(338, 50%, 50%)" opacity="0.33"></circle><circle r="13.5" cx="580" cy="358" stroke-width="2" stroke="hsl(349, 50%, 50%)" fill="none" opacity="0.74"></circle><circle r="11" cx="737" cy="313" fill="hsl(346, 50%, 50%)" opacity="0.51"></circle><circle r="11.5" cx="155" cy="736" fill="hsl(339, 50%, 50%)" opacity="0.54"></circle><circle r="6.5" cx="1123" cy="349" stroke-width="2" stroke="hsl(330, 50%, 50%)" fill="none" opacity="0.10"></circle><circle r="7.5" cx="272" cy="515" fill="hsl(338, 50%, 50%)" opacity="0.41"></circle><circle r="13" cx="668" cy="741" stroke-width="2" stroke="hsl(348, 50%, 50%)" fill="none" opacity="0.56"></circle><circle r="5" cx="957" cy="545" fill="hsl(335, 50%, 50%)" opacity="0.28"></circle><circle r="12" cx="315" cy="493" fill="hsl(340, 50%, 50%)" opacity="0.97"></circle><circle r="3.5" cx="1052" cy="15" stroke-width="2" stroke="hsl(330, 50%, 50%)" fill="none" opacity="0.68"></circle><circle r="7.5" cx="1045" cy="497" stroke-width="2" stroke="hsl(331, 50%, 50%)" fill="none" opacity="0.48"></circle><circle r="5.5" cx="1068" cy="231" fill="hsl(331, 50%, 50%)" opacity="0.68"></circle><circle r="12" cx="322" cy="415" stroke-width="2" stroke="hsl(340, 50%, 50%)" fill="none" opacity="0.44"></circle><circle r="9.5" cx="420" cy="22" fill="hsl(341, 50%, 50%)" opacity="0.99"></circle><circle r="14.5" cx="104" cy="127" stroke-width="2" stroke="hsl(340, 50%, 50%)" fill="none" opacity="0.72"></circle><circle r="18.5" cx="139" cy="51" fill="hsl(337, 50%, 50%)" opacity="0.55"></circle><circle r="9" cx="225" cy="422" stroke-width="2" stroke="hsl(338, 50%, 50%)" fill="none" opacity="0.20"></circle><circle r="15.5" cx="596" cy="245" fill="hsl(349, 50%, 50%)" opacity="0.37"></circle><circle r="7.5" cx="1112" cy="102" stroke-width="2" stroke="hsl(330, 50%, 50%)" fill="none" opacity="0.83"></circle><circle r="7" cx="1404" cy="176" fill="hsl(338, 50%, 50%)" opacity="0.30"></circle><circle r="10" cx="340" cy="143" stroke-width="2" stroke="hsl(339, 50%, 50%)" fill="none" opacity="0.41"></circle><circle r="9.5" cx="293" cy="593" fill="hsl(339, 50%, 50%)" opacity="0.91"></circle><circle r="10.5" cx="965" cy="423" stroke-width="2" stroke="hsl(335, 50%, 50%)" fill="none" opacity="0.58"></circle><circle r="17" cx="518" cy="44" fill="hsl(345, 50%, 50%)" opacity="0.79"></circle><circle r="9" cx="182" cy="216" stroke-width="2" stroke="hsl(338, 50%, 50%)" fill="none" opacity="0.80"></circle><circle r="8.5" cx="1165" cy="391" stroke-width="2" stroke="hsl(330, 50%, 50%)" fill="none" opacity="0.90"></circle><circle r="6.5" cx="986" cy="604" fill="hsl(334, 50%, 50%)" opacity="0.29"></circle><circle r="7.5" cx="132" cy="782" fill="hsl(340, 50%, 50%)" opacity="0.75"></circle><circle r="9.5" cx="227" cy="196" fill="hsl(338, 50%, 50%)" opacity="0.76"></circle><circle r="11.5" cx="533" cy="430" fill="hsl(348, 50%, 50%)" opacity="0.74"></circle><circle r="8.5" cx="389" cy="569" fill="hsl(343, 50%, 50%)" opacity="0.81"></circle><circle r="6.5" cx="284" cy="783" stroke-width="2" stroke="hsl(338, 50%, 50%)" fill="none" opacity="0.11"></circle><circle r="15.5" cx="773" cy="237" stroke-width="2" stroke="hsl(345, 50%, 50%)" fill="none" opacity="0.89"></circle><circle r="16" cx="455" cy="455" stroke-width="2" stroke="hsl(346, 50%, 50%)" fill="none" opacity="0.54"></circle><circle r="7.5" cx="1301" cy="121" stroke-width="2" stroke="hsl(333, 50%, 50%)" fill="none" opacity="0.94"></circle><circle r="7.5" cx="420" cy="100" fill="hsl(341, 50%, 50%)" opacity="0.30"></circle><circle r="7" cx="250" cy="598" stroke-width="2" stroke="hsl(338, 50%, 50%)" fill="none" opacity="0.47"></circle><circle r="7.5" cx="1026" cy="213" stroke-width="2" stroke="hsl(332, 50%, 50%)" fill="none" opacity="0.98"></circle><circle r="5.5" cx="256" cy="564" fill="hsl(338, 50%, 50%)" opacity="0.32"></circle><circle r="10" cx="217" cy="74" stroke-width="2" stroke="hsl(336, 50%, 50%)" fill="none" opacity="0.98"></circle><circle r="13" cx="628" cy="351" stroke-width="2" stroke="hsl(349, 50%, 50%)" fill="none" opacity="0.13"></circle><circle r="11" cx="20" cy="424" fill="hsl(345, 50%, 50%)" opacity="0.73"></circle><circle r="6.5" cx="1133" cy="492" fill="hsl(330, 50%, 50%)" opacity="0.73"></circle><circle r="12.5" cx="850" cy="680" fill="hsl(341, 50%, 50%)" opacity="0.96"></circle><circle r="14.5" cx="106" cy="581" fill="hsl(341, 50%, 50%)" opacity="0.35"></circle><circle r="8.5" cx="742" cy="501" fill="hsl(346, 50%, 50%)" opacity="0.36"></circle><circle r="15.5" cx="29" cy="545" fill="hsl(344, 50%, 50%)" opacity="0.78"></circle><circle r="6" cx="1241" cy="303" stroke-width="2" stroke="hsl(331, 50%, 50%)" fill="none" opacity="0.19"></circle><circle r="8" cx="1015" cy="550" stroke-width="2" stroke="hsl(333, 50%, 50%)" fill="none" opacity="0.91"></circle><circle r="5" cx="1377" cy="281" fill="hsl(336, 50%, 50%)" opacity="0.75"></circle><circle r="8" cx="1402" cy="686" fill="hsl(338, 50%, 50%)" opacity="0.75"></circle><circle r="14" cx="95" cy="657" stroke-width="2" stroke="hsl(341, 50%, 50%)" fill="none" opacity="0.55"></circle><circle r="11.5" cx="1346" cy="709" stroke-width="2" stroke="hsl(335, 50%, 50%)" fill="none" opacity="0.44"></circle><circle r="9" cx="1330" cy="369" fill="hsl(334, 50%, 50%)" opacity="0.78"></circle><circle r="8.5" cx="169" cy="146" fill="hsl(338, 50%, 50%)" opacity="0.59"></circle><circle r="7.5" cx="88" cy="448" stroke-width="2" stroke="hsl(342, 50%, 50%)" fill="none" opacity="0.53"></circle><circle r="6" cx="305" cy="715" fill="hsl(339, 50%, 50%)" opacity="0.64"></circle><circle r="13" cx="696" cy="475" stroke-width="2" stroke="hsl(347, 50%, 50%)" fill="none" opacity="0.19"></circle><circle r="7.5" cx="1211" cy="564" fill="hsl(331, 50%, 50%)" opacity="0.30"></circle><circle r="6" cx="144" cy="435" stroke-width="2" stroke="hsl(339, 50%, 50%)" fill="none" opacity="0.52"></circle><circle r="11" cx="302" cy="357" fill="hsl(339, 50%, 50%)" opacity="0.16"></circle><circle r="7.5" cx="833" cy="315" stroke-width="2" stroke="hsl(342, 50%, 50%)" fill="none" opacity="1.00"></circle><circle r="11" cx="739" cy="365" stroke-width="2" stroke="hsl(346, 50%, 50%)" fill="none" opacity="0.94"></circle><circle r="15" cx="573" cy="294" fill="hsl(349, 50%, 50%)" opacity="0.16"></circle><circle r="13.5" cx="842" cy="242" fill="hsl(342, 50%, 50%)" opacity="0.84"></circle><circle r="6.5" cx="839" cy="580" stroke-width="2" stroke="hsl(342, 50%, 50%)" fill="none" opacity="0.89"></circle><circle r="8.5" cx="976" cy="282" stroke-width="2" stroke="hsl(335, 50%, 50%)" fill="none" opacity="0.20"></circle><circle r="8.5" cx="236" cy="491" stroke-width="2" stroke="hsl(338, 50%, 50%)" fill="none" opacity="0.49"></circle><circle r="7" cx="1224" cy="721" fill="hsl(331, 50%, 50%)" opacity="0.33"></circle><circle r="15" cx="547" cy="166" fill="hsl(348, 50%, 50%)" opacity="0.74"></circle><circle r="7" cx="791" cy="786" fill="hsl(344, 50%, 50%)" opacity="0.96"></circle><circle r="13.5" cx="694" cy="628" stroke-width="2" stroke="hsl(347, 50%, 50%)" fill="none" opacity="0.46"></circle><circle r="9" cx="248" cy="344" fill="hsl(338, 50%, 50%)" opacity="0.86"></circle><circle r="13" cx="679" cy="169" stroke-width="2" stroke="hsl(346, 50%, 50%)" fill="none" opacity="0.25"></circle><circle r="14.5" cx="457" cy="540" fill="hsl(346, 50%, 50%)" opacity="0.55"></circle><circle r="16.5" cx="521" cy="665" stroke-width="2" stroke="hsl(348, 50%, 50%)" fill="none" opacity="0.33"></circle><circle r="15" cx="746" cy="744" fill="hsl(346, 50%, 50%)" opacity="0.36"></circle><circle r="6.5" cx="802" cy="340" fill="hsl(343, 50%, 50%)" opacity="0.99"></circle><circle r="12" cx="860" cy="353" fill="hsl(341, 50%, 50%)" opacity="0.45"></circle><circle r="7.5" cx="177" cy="437" fill="hsl(339, 50%, 50%)" opacity="0.32"></circle><circle r="4.5" cx="991" cy="17" stroke-width="2" stroke="hsl(330, 50%, 50%)" fill="none" opacity="0.35"></circle><circle r="14" cx="459" cy="315" fill="hsl(346, 50%, 50%)" opacity="0.13"></circle><circle r="10" cx="218" cy="698" stroke-width="2" stroke="hsl(338, 50%, 50%)" fill="none" opacity="0.43"></circle><circle r="6" cx="1115" cy="202" stroke-width="2" stroke="hsl(330, 50%, 50%)" fill="none" opacity="0.23"></circle><circle r="5" cx="1118" cy="533" stroke-width="2" stroke="hsl(330, 50%, 50%)" fill="none" opacity="0.13"></circle><circle r="12" cx="898" cy="192" stroke-width="2" stroke="hsl(338, 50%, 50%)" fill="none" opacity="0.22"></circle><circle r="12" cx="816" cy="434" stroke-width="2" stroke="hsl(343, 50%, 50%)" fill="none" opacity="0.72"></circle><circle r="9.5" cx="1228" cy="150" stroke-width="2" stroke="hsl(331, 50%, 50%)" fill="none" opacity="0.88"></circle><circle r="10.5" cx="538" cy="361" fill="hsl(349, 50%, 50%)" opacity="0.31"></circle><circle r="13" cx="822" cy="181" fill="hsl(342, 50%, 50%)" opacity="0.69"></circle><circle r="11" cx="348" cy="695" fill="hsl(341, 50%, 50%)" opacity="0.59"></circle><circle r="7.5" cx="45" cy="205" fill="hsl(343, 50%, 50%)" opacity="0.23"></circle><circle r="13.5" cx="495" cy="494" stroke-width="2" stroke="hsl(347, 50%, 50%)" fill="none" opacity="0.63"></circle><circle r="15" cx="168" cy="643" stroke-width="2" stroke="hsl(339, 50%, 50%)" fill="none" opacity="0.40"></circle><circle r="7" cx="377" cy="119" stroke-width="2" stroke="hsl(340, 50%, 50%)" fill="none" opacity="0.57"></circle><circle r="7.5" cx="1130" cy="762" fill="hsl(330, 50%, 50%)" opacity="0.15"></circle><circle r="11" cx="176" cy="286" stroke-width="2" stroke="hsl(339, 50%, 50%)" fill="none" opacity="0.66"></circle><circle r="7.5" cx="227" cy="22" fill="hsl(336, 50%, 50%)" opacity="0.26"></circle><circle r="11" cx="928" cy="246" fill="hsl(337, 50%, 50%)" opacity="0.52"></circle><circle r="7" cx="297" cy="748" fill="hsl(339, 50%, 50%)" opacity="0.18"></circle><circle r="12.5" cx="393" cy="670" stroke-width="2" stroke="hsl(343, 50%, 50%)" fill="none" opacity="0.24"></circle><circle r="6.5" cx="1366" cy="564" fill="hsl(336, 50%, 50%)" opacity="0.73"></circle><circle r="11.5" cx="890" cy="404" fill="hsl(338, 50%, 50%)" opacity="0.86"></circle><circle r="7" cx="14" cy="773" stroke-width="2" stroke="hsl(345, 50%, 50%)" fill="none" opacity="0.87"></circle><circle r="12.5" cx="744" cy="676" stroke-width="2" stroke="hsl(346, 50%, 50%)" fill="none" opacity="0.86"></circle><circle r="8" cx="365" cy="449" stroke-width="2" stroke="hsl(342, 50%, 50%)" fill="none" opacity="0.35"></circle><circle r="12" cx="817" cy="496" stroke-width="2" stroke="hsl(343, 50%, 50%)" fill="none" opacity="0.51"></circle><circle r="7" cx="1058" cy="280" fill="hsl(331, 50%, 50%)" opacity="0.21"></circle><circle r="15.5" cx="627" cy="440" fill="hsl(349, 50%, 50%)" opacity="0.92"></circle></svg>